<?xml version="1.0" encoding="utf-8"?>
<!-- Generator: Adobe Illustrator 14.0.0, SVG Export Plug-In . SVG Version: 6.00 Build 43363)  -->
<!DOCTYPE svg PUBLIC "-//W3C//DTD SVG 1.1//EN" "http://www.w3.org/Graphics/SVG/1.1/DTD/svg11.dtd">
<svg version="1.1" id="Layer_1" xmlns="http://www.w3.org/2000/svg" xmlns:xlink="http://www.w3.org/1999/xlink" x="0px" y="0px"
	 width="185px" height="80px" viewBox="0 0 185 80" enable-background="new 0 0 185 80" xml:space="preserve">
<g>
	<path fill-rule="evenodd" clip-rule="evenodd" fill="#95979C" d="M89.569,10.364c16.186-2.483,31.865,0.258,44.173,6.617
		c-3.138,0.375-5.729,2.577-6.674,5.506c-13.333-7.314-30.008-9.714-45.622-5.779C57.357,22.778,34.86,41.27,31.96,70.037
		c0,0.61-1.379,0.738-1.348,0C32.171,43.643,55.096,15.653,89.569,10.364L89.569,10.364z"/>
	<path fill-rule="evenodd" clip-rule="evenodd" fill="#00B3E7" d="M134.431,18.789c3.241,0,5.885,2.643,5.885,5.884
		s-2.644,5.883-5.885,5.883c-3.24,0-5.883-2.643-5.883-5.883S131.19,18.789,134.431,18.789L134.431,18.789z"/>
	<path fill-rule="evenodd" clip-rule="evenodd" fill="#FFFFFF" d="M166.959,27.466v-2.441h-1.034v-0.53h2.777v0.53h-1.026v2.441
		H166.959L166.959,27.466z M169.116,27.466v-2.971h1.062l0.692,2.261l0.685-2.261h1.065v2.971h-0.672v-2.397l-0.709,2.397h-0.733
		l-0.718-2.397v2.397H169.116L169.116,27.466z"/>
	<path fill-rule="evenodd" clip-rule="evenodd" d="M142.49,24.498h22.211v2.981h-18.297v9.538h17.981V40h-17.981v10.097h18.297
		v2.981H142.49V24.498L142.49,24.498z M12.38,24.498c6.262,0,11.381,0,17.644,0c4.721,0,7.581,3.258,7.581,7.241l0,0
		c0,2.886-1.512,5.391-3.863,6.552c2.352,1.245,4.151,3.932,4.151,7.025l0,0c0,4.269-3.203,7.762-7.015,7.762
		c-6.263,0-12.236,0-18.498,0V24.498L12.38,24.498z M16.293,27.479v9.455h12.086c3.491,0,5.048-2.261,5.048-4.686l0,0
		c0-2.624-0.703-4.77-4.479-4.77H16.293L16.293,27.479z M16.293,40.077v10.02h12.738c3.469,0,4.532-2.271,4.532-5.049l0,0
		c0-2.578-1.462-4.971-4.532-4.971H16.293L16.293,40.077z M65.746,24.498v19.4c0,7.869-6.78,10.012-12.945,10.012
		c-6.133,0-12.807-2.233-12.807-10.012v-19.4h3.914v18.985c0,5.396,4.629,7.042,8.894,7.042c4.295,0,9.03-1.552,9.03-7.042V24.498
		H65.746L65.746,24.498z M68.608,24.498h6.812L90.226,48.88V24.498h3.914v28.58h-6.422L72.522,28.055v25.023h-3.914V24.498
		L68.608,24.498z M112.646,23.179c7.632,0,12.211,4.409,14.56,10.519h-0.186h-4.38c-2.104-3.98-4.737-6.74-9.994-6.74
		c-7.288,0-12.093,5.306-12.093,11.813c0,6.506,5.943,11.813,13.232,11.813c3.631,0,6.927-1.318,9.32-3.443v-5.057h-6.996v-3.97
		h10.91V48.77v0.152c-3.207,3.326-7.953,5.439-13.234,5.439c-9.618,0-17.464-7.004-17.464-15.591S103.027,23.179,112.646,23.179
		L112.646,23.179z M133.139,32.207h3.913v20.872h-3.913V32.207L133.139,32.207z"/>
</g>
</svg>
