<?xml version="1.0" encoding="UTF-8" standalone="no"?>
<svg width="44px" height="44px" viewBox="0 0 44 44" version="1.1" xmlns="http://www.w3.org/2000/svg" xmlns:xlink="http://www.w3.org/1999/xlink">
    <!-- Generator: Sketch 3.7.2 (28276) - http://www.bohemiancoding.com/sketch -->
    <title>clo-t</title>
    <desc>Created with Sketch.</desc>
    <defs></defs>
    <g id="44px-Line" stroke="none" stroke-width="1" fill="none" fill-rule="evenodd">
        <g id="clo-t"></g>
        <path d="M5.375,19.781 C5.584,19.948 5.853,20.025 6.12,19.993 C6.387,19.961 6.629,19.823 6.792,19.61 L8.076,17.941 L8.076,41 C8.076,41.552 8.524,42 9.076,42 L33,42 C33.552,42 34,41.552 34,41 L34,18 L35.2,19.6 C35.362,19.816 35.605,19.958 35.874,19.992 C36.142,20.027 36.414,19.95 36.624,19.781 L41.624,15.781 C42.026,15.459 42.118,14.885 41.837,14.453 L37.003,7.049 C36.024,5.579 34.639,4.456 32.921,3.772 L27.293,2.044 C27.257,2.033 27.219,2.044 27.183,2.037 C27.122,2.025 27.065,2 27,2 C26.966,2 26.937,2.016 26.904,2.019 C26.849,2.024 26.799,2.037 26.745,2.051 C26.653,2.076 26.569,2.111 26.49,2.16 C26.463,2.176 26.431,2.177 26.406,2.196 C26.385,2.212 26.373,2.235 26.354,2.252 C26.308,2.291 26.271,2.335 26.233,2.382 C26.191,2.434 26.154,2.486 26.123,2.545 C26.096,2.596 26.077,2.649 26.06,2.705 C26.049,2.741 26.026,2.772 26.019,2.809 C25.647,3.187 23.807,4 21,4 C18.193,4 16.353,3.187 15.981,2.809 C15.974,2.772 15.951,2.741 15.94,2.705 C15.922,2.649 15.903,2.596 15.877,2.545 C15.846,2.486 15.809,2.434 15.767,2.382 C15.729,2.335 15.692,2.291 15.646,2.252 C15.626,2.235 15.615,2.211 15.594,2.196 C15.569,2.177 15.536,2.176 15.509,2.16 C15.43,2.112 15.347,2.077 15.256,2.052 C15.202,2.037 15.152,2.025 15.096,2.02 C15.063,2.016 15.034,2 15,2 C14.935,2 14.878,2.025 14.817,2.037 C14.78,2.044 14.743,2.033 14.707,2.044 L9,3.8 C7.36,4.456 5.976,5.579 4.991,7.057 L0.162,14.453 C-0.119,14.885 -0.027,15.459 0.375,15.781 L5.375,19.781 L5.375,19.781 Z M25.403,5.319 C24.563,6.905 22.915,8 21,8 C19.084,8 17.437,6.905 16.597,5.319 C17.875,5.756 19.462,6 21,6 C22.538,6 24.125,5.756 25.403,5.319 L25.403,5.319 Z M6.661,8.158 C7.415,7.027 8.481,6.161 9.666,5.684 L14.128,4.314 C14.745,7.547 17.589,10 21,10 C24.411,10 27.255,7.547 27.872,4.313 L32.256,5.656 C33.519,6.161 34.585,7.027 35.334,8.15 L39.667,14.786 L36.182,17.575 L33.8,14.4 C33.542,14.056 33.093,13.914 32.684,14.051 C32.275,14.188 32,14.569 32,15 L32,40 L10.077,40 L10.077,15 C10.077,14.572 9.805,14.191 9.399,14.053 C8.995,13.914 8.546,14.051 8.285,14.39 L5.829,17.582 L2.334,14.786 L6.661,8.158 L6.661,8.158 Z" id="Shape" fill="#FFFFFF"></path>
    </g>
</svg>