<?xml version="1.0" encoding="UTF-8" standalone="no"?>
<svg
   xmlns:dc="http://purl.org/dc/elements/1.1/"
   xmlns:cc="http://creativecommons.org/ns#"
   xmlns:rdf="http://www.w3.org/1999/02/22-rdf-syntax-ns#"
   xmlns:svg="http://www.w3.org/2000/svg"
   xmlns="http://www.w3.org/2000/svg"
   viewBox="0 0 666.66669 666.66669"
   height="666.66669"
   width="666.66669"
   xml:space="preserve"
   id="svg2"
   version="1.1"><metadata
     id="metadata8"><rdf:RDF><cc:Work
         rdf:about=""><dc:format>image/svg+xml</dc:format><dc:type
           rdf:resource="http://purl.org/dc/dcmitype/StillImage" /></cc:Work></rdf:RDF></metadata><defs
     id="defs6"><clipPath
       id="clipPath18"
       clipPathUnits="userSpaceOnUse"><path
         id="path16"
         d="M 0,500 H 500 V 0 H 0 Z" /></clipPath><clipPath
       id="clipPath26"
       clipPathUnits="userSpaceOnUse"><path
         id="path24"
         d="M 2.77979,399.19 H 496 V 127.59 H 2.77979 Z" /></clipPath></defs><g
     transform="matrix(1.3333333,0,0,-1.3333333,0,666.66667)"
     id="g10"><g
       id="g12"><g
         clip-path="url(#clipPath18)"
         id="g14"><g
           id="g20"><g
             id="g22" /><g
             id="g146"><g
               id="g144"
               clip-path="url(#clipPath26)"><g
                 id="g30"
                 transform="translate(476.4004,161.54)"><path
                   id="path28"
                   style="fill:#000000;fill-opacity:1;fill-rule:nonzero;stroke:none"
                   d="m 0,0 19.6,-33.95 h -39.201 -39.21 L -39.2,0 -19.601,33.95 Z" /></g><g
                 id="g34"
                 transform="translate(437.2002,229.4404)"><path
                   id="path32"
                   style="fill:#000000;fill-opacity:1;fill-rule:nonzero;stroke:none"
                   d="M 0,0 19.6,-33.95 H -19.61 -58.811 L -39.21,0 l 19.6,33.95 z" /></g><g
                 id="g38"
                 transform="translate(456.7998,195.4902)"><path
                   id="path36"
                   style="fill:#000000;fill-opacity:1;fill-rule:nonzero;stroke:none"
                   d="M 0,0 -19.6,-33.95 -39.21,-67.9 -58.81,-33.95 -78.41,0 h 39.2 z" /></g><g
                 id="g42"
                 transform="translate(397.9902,297.3398)"><path
                   id="path40"
                   style="fill:#000000;fill-opacity:1;fill-rule:nonzero;stroke:none"
                   d="M 0,0 19.6,-33.95 H -19.601 -58.8 L -39.2,0 -19.601,33.95 Z" /></g><g
                 id="g46"
                 transform="translate(417.5898,263.3901)"><path
                   id="path44"
                   style="fill:#000000;fill-opacity:1;fill-rule:nonzero;stroke:none"
                   d="M 0,0 -19.6,-33.95 -39.2,-67.9 -58.8,-33.95 -78.399,0 H -39.2 Z" /></g><g
                 id="g50"
                 transform="translate(391.4199,161.1104)"><path
                   id="path48"
                   style="fill:#000000;fill-opacity:1;fill-rule:nonzero;stroke:none"
                   d="m 0,0 19.35,-33.521 h -38.71 -38.7 L -38.71,0 -19.36,33.51 Z" /></g><g
                 id="g54"
                 transform="translate(358.79,365.2402)"><path
                   id="path52"
                   style="fill:#000000;fill-opacity:1;fill-rule:nonzero;stroke:none"
                   d="M 0,0 19.6,-33.95 H -19.6 -58.8 L -39.2,0 -19.6,33.95 Z" /></g><g
                 id="g58"
                 transform="translate(378.3896,331.29)"><path
                   id="path56"
                   style="fill:#000000;fill-opacity:1;fill-rule:nonzero;stroke:none"
                   d="M 0,0 -19.6,-33.95 -39.199,-67.9 -58.8,-33.95 -78.399,0 h 39.2 z" /></g><g
                 id="g62"
                 transform="translate(352.71,228.1396)"><path
                   id="path60"
                   style="fill:#000000;fill-opacity:1;fill-rule:nonzero;stroke:none"
                   d="m 0,0 19.35,-33.52 h -38.7 -38.7 L -38.7,0 -19.35,33.521 Z" /></g><g
                 id="g66"
                 transform="translate(372.0596,194.6201)"><path
                   id="path64"
                   style="fill:#000000;fill-opacity:1;fill-rule:nonzero;stroke:none"
                   d="M 0,0 -19.35,-33.51 -38.699,-67.03 -58.05,-33.51 -77.399,0 h 38.7 z" /></g><g
                 id="g70"
                 transform="translate(314.0098,295.1802)"><path
                   id="path68"
                   style="fill:#000000;fill-opacity:1;fill-rule:nonzero;stroke:none"
                   d="M 0,0 19.351,-33.52 H -19.35 -58.05 L -38.7,0 -19.35,33.52 Z" /></g><g
                 id="g74"
                 transform="translate(333.3604,261.6602)"><path
                   id="path72"
                   style="fill:#000000;fill-opacity:1;fill-rule:nonzero;stroke:none"
                   d="M 0,0 -19.351,-33.521 -38.7,-67.04 -58.051,-33.521 -77.4,0 h 38.7 z" /></g><g
                 id="g78"
                 transform="translate(306.3398,160.3896)"><path
                   id="path76"
                   style="fill:#000000;fill-opacity:1;fill-rule:nonzero;stroke:none"
                   d="M 0,0 18.94,-32.8 H -18.939 -56.81 L -37.87,0 -18.939,32.801 Z" /></g><g
                 id="g82"
                 transform="translate(269.1299,365.2402)"><path
                   id="path80"
                   style="fill:#000000;fill-opacity:1;fill-rule:nonzero;stroke:none"
                   d="M 0,0 19.601,-33.95 0,-67.9 -19.6,-101.85 -39.2,-67.9 -58.8,-33.95 -39.2,0 -19.6,33.95 Z" /></g><g
                 id="g86"
                 transform="translate(268.4697,225.9902)"><path
                   id="path84"
                   style="fill:#000000;fill-opacity:1;fill-rule:nonzero;stroke:none"
                   d="M 0,0 18.931,-32.8 H -18.94 -56.81 L -37.88,0 -18.94,32.8 Z" /></g><g
                 id="g90"
                 transform="translate(287.4004,193.1904)"><path
                   id="path88"
                   style="fill:#000000;fill-opacity:1;fill-rule:nonzero;stroke:none"
                   d="m 0,0 -18.931,-32.801 -18.94,-32.8 -18.94,32.8 L -75.74,0 h 37.869 z" /></g><g
                 id="g94"
                 transform="translate(230.5898,160.3896)"><path
                   id="path92"
                   style="fill:#000000;fill-opacity:1;fill-rule:nonzero;stroke:none"
                   d="M 0,0 18.94,-32.8 H -18.93 -56.8 L -37.87,0 -18.93,32.801 Z" /></g><g
                 id="g98"
                 transform="translate(223.8301,295.1802)"><path
                   id="path96"
                   style="fill:#000000;fill-opacity:1;fill-rule:nonzero;stroke:none"
                   d="m 0,0 19.35,-33.52 h -38.7 -38.71 L -38.71,0 -19.35,33.52 Z" /></g><g
                 id="g102"
                 transform="translate(243.1802,261.6602)"><path
                   id="path100"
                   style="fill:#000000;fill-opacity:1;fill-rule:nonzero;stroke:none"
                   d="M 0,0 -19.35,-33.521 -38.7,-67.04 -58.06,-33.521 -77.41,0 h 38.71 z" /></g><g
                 id="g106"
                 transform="translate(185.1201,228.1396)"><path
                   id="path104"
                   style="fill:#000000;fill-opacity:1;fill-rule:nonzero;stroke:none"
                   d="m 0,0 19.36,-33.52 h -38.71 -38.7 L -38.7,0 -19.35,33.521 Z" /></g><g
                 id="g110"
                 transform="translate(204.48,194.6201)"><path
                   id="path108"
                   style="fill:#000000;fill-opacity:1;fill-rule:nonzero;stroke:none"
                   d="M 0,0 -19.36,-33.51 -38.71,-67.03 -58.06,-33.51 -77.41,0 h 38.7 z" /></g><g
                 id="g114"
                 transform="translate(179.1899,365.2402)"><path
                   id="path112"
                   style="fill:#000000;fill-opacity:1;fill-rule:nonzero;stroke:none"
                   d="M 0,0 19.6,-33.95 H -19.6 -58.81 L -39.2,0 -19.6,33.95 Z" /></g><g
                 id="g118"
                 transform="translate(198.79,331.29)"><path
                   id="path116"
                   style="fill:#000000;fill-opacity:1;fill-rule:nonzero;stroke:none"
                   d="M 0,0 -19.6,-33.95 -39.2,-67.9 -58.8,-33.95 -78.41,0 h 39.21 z" /></g><g
                 id="g122"
                 transform="translate(146.4199,161.1104)"><path
                   id="path120"
                   style="fill:#000000;fill-opacity:1;fill-rule:nonzero;stroke:none"
                   d="m 0,0 19.35,-33.521 h -38.7 -38.7 L -38.7,0 -19.35,33.51 Z" /></g><g
                 id="g126"
                 transform="translate(139.9902,297.3398)"><path
                   id="path124"
                   style="fill:#000000;fill-opacity:1;fill-rule:nonzero;stroke:none"
                   d="m 0,0 19.6,-33.95 h -39.21 -39.2 l 19.6,33.95 19.6,33.95 z" /></g><g
                 id="g130"
                 transform="translate(159.5898,263.3901)"><path
                   id="path128"
                   style="fill:#000000;fill-opacity:1;fill-rule:nonzero;stroke:none"
                   d="M 0,0 -19.6,-33.95 -39.21,-67.9 -58.81,-33.95 -78.41,0 h 39.2 z" /></g><g
                 id="g134"
                 transform="translate(100.7798,229.4404)"><path
                   id="path132"
                   style="fill:#000000;fill-opacity:1;fill-rule:nonzero;stroke:none"
                   d="M 0,0 19.6,-33.95 H -19.6 -58.8 L -39.2,0 -19.6,33.95 Z" /></g><g
                 id="g138"
                 transform="translate(120.3799,195.4902)"><path
                   id="path136"
                   style="fill:#000000;fill-opacity:1;fill-rule:nonzero;stroke:none"
                   d="M 0,0 -19.6,-33.95 -39.2,-67.9 -58.8,-33.95 -78.4,0 h 39.2 z" /></g><g
                 id="g142"
                 transform="translate(61.5801,161.54)"><path
                   id="path140"
                   style="fill:#000000;fill-opacity:1;fill-rule:nonzero;stroke:none"
                   d="M 0,0 19.6,-33.95 H -19.6 -58.8 L -39.2,0 -19.6,33.95 Z" /></g></g></g></g></g></g></g></svg>