<?xml version="1.0" encoding="UTF-8" standalone="no"?>
<svg
   xmlns:dc="http://purl.org/dc/elements/1.1/"
   xmlns:cc="http://creativecommons.org/ns#"
   xmlns:rdf="http://www.w3.org/1999/02/22-rdf-syntax-ns#"
   xmlns:svg="http://www.w3.org/2000/svg"
   xmlns="http://www.w3.org/2000/svg"
   viewBox="0 0 666.66669 666.66669"
   height="666.66669"
   width="666.66669"
   xml:space="preserve"
   id="svg2"
   version="1.1"><metadata
     id="metadata8"><rdf:RDF><cc:Work
         rdf:about=""><dc:format>image/svg+xml</dc:format><dc:type
           rdf:resource="http://purl.org/dc/dcmitype/StillImage" /></cc:Work></rdf:RDF></metadata><defs
     id="defs6" /><g
     transform="matrix(1.3333333,0,0,-1.3333333,0,666.66667)"
     id="g10"><g
       transform="translate(239.1572,250.252)"
       id="g12"><path
         id="path14"
         style="fill:#000000;fill-opacity:1;fill-rule:nonzero;stroke:none"
         d="m 0,0 -80.674,46.579 -80.67,46.571 V 0 -93.15 l 80.67,46.574 z" /></g><g
       transform="translate(260.8437,250.2529)"
       id="g16"><path
         id="path18"
         style="fill:#000000;fill-opacity:1;fill-rule:nonzero;stroke:none"
         d="m 0,0 80.675,-46.58 80.669,-46.571 V 0 93.15 L 80.675,46.576 Z" /></g><g
       transform="translate(331.5049,399.313)"
       id="g20"><path
         id="path22"
         style="fill:#000000;fill-opacity:1;fill-rule:nonzero;stroke:none"
         d="M 0,0 -80.669,46.574 -161.339,0 l -80.674,-46.579 80.674,-46.578 80.67,-46.571 v 0.002 L 0,-93.152 80.674,-46.579 Z" /></g><g
       transform="translate(331.5049,193.8398)"
       id="g24"><path
         id="path26"
         style="fill:#000000;fill-opacity:1;fill-rule:nonzero;stroke:none"
         d="M 0,0 -80.669,46.573 -161.339,0 l -80.674,-46.579 80.674,-46.578 80.67,-46.57 L 0,-93.152 80.674,-46.579 Z" /></g></g></svg>