<?xml version="1.0" encoding="UTF-8" standalone="no"?>
<svg
   xmlns:dc="http://purl.org/dc/elements/1.1/"
   xmlns:cc="http://creativecommons.org/ns#"
   xmlns:rdf="http://www.w3.org/1999/02/22-rdf-syntax-ns#"
   xmlns:svg="http://www.w3.org/2000/svg"
   xmlns="http://www.w3.org/2000/svg"
   viewBox="0 0 666.66669 666.66669"
   height="666.66669"
   width="666.66669"
   xml:space="preserve"
   id="svg2"
   version="1.1"><metadata
     id="metadata8"><rdf:RDF><cc:Work
         rdf:about=""><dc:format>image/svg+xml</dc:format><dc:type
           rdf:resource="http://purl.org/dc/dcmitype/StillImage" /></cc:Work></rdf:RDF></metadata><defs
     id="defs6" /><g
     transform="matrix(1.3333333,0,0,-1.3333333,0,666.66667)"
     id="g10"><g
       transform="translate(206.2324,401.4326)"
       id="g12"><path
         id="path14"
         style="fill:#000000;fill-opacity:1;fill-rule:nonzero;stroke:none"
         d="M 0,0 43.736,75.752 H -44.323 L -87.471,1.016 -131.207,-74.736 h 87.471 l -43.735,-75.753 -43.736,-75.752 v -1.017 h 87.471 L 0,-151.505 43.735,-75.752 h -87.471 z" /></g><g
       transform="translate(337.4395,325.6802)"
       id="g16"><path
         id="path18"
         style="fill:#000000;fill-opacity:1;fill-rule:nonzero;stroke:none"
         d="M 0,0 H 87.472 L 43.735,75.752 0,151.505 h -87.471 l 43.736,-75.753 z" /></g><g
       transform="translate(424.9111,174.1758)"
       id="g20"><path
         id="path22"
         style="fill:#000000;fill-opacity:1;fill-rule:nonzero;stroke:none"
         d="m 0,0 -43.736,75.751 -43.736,75.753 h -87.471 v 0 l 43.736,-75.752 43.735,-75.753 H 0 Z" /></g><g
       transform="translate(381.1758,98.4219)"
       id="g24"><path
         id="path26"
         style="fill:#000000;fill-opacity:1;fill-rule:nonzero;stroke:none"
         d="m 0,0 -43.736,75.753 h -87.471 l 43.735,-75.752 43.735,-75.752 h 87.472 v 0.001 z" /></g><g
       transform="translate(75.0259,22.6709)"
       id="g28"><path
         id="path30"
         style="fill:#000000;fill-opacity:1;fill-rule:nonzero;stroke:none"
         d="m 0,0 h 87.471 l 43.736,75.752 43.735,75.752 H 87.471 L 43.735,75.752 Z" /></g></g></svg>