<?xml version="1.0" encoding="UTF-8" standalone="no"?>
<svg width="44px" height="44px" viewBox="0 0 44 44" version="1.1" xmlns="http://www.w3.org/2000/svg" xmlns:xlink="http://www.w3.org/1999/xlink">
    <!-- Generator: Sketch 3.7.2 (28276) - http://www.bohemiancoding.com/sketch -->
    <title>sec-safe</title>
    <desc>Created with Sketch.</desc>
    <defs></defs>
    <g id="44px-Line" stroke="none" stroke-width="1" fill="none" fill-rule="evenodd">
        <g id="sec-safe"></g>
        <path d="M4,42 L6,42 L6,43 C6,43.552 6.448,44 7,44 L11,44 C11.552,44 12,43.552 12,43 L12,42 L32,42 L32,43 C32,43.552 32.448,44 33,44 L37,44 C37.552,44 38,43.552 38,43 L38,42 C40.206,42 42,40.206 42,38 L42,4 C42,1.794 40.206,0 38,0 L4,0 C1.794,0 0,1.794 0,4 L0,38 C0,40.206 1.794,42 4,42 L4,42 Z M2,4 C2,2.897 2.897,2 4,2 L38,2 C39.103,2 40,2.897 40,4 L40,38 C40,39.103 39.103,40 38,40 L37,40 L33,40 L11,40 L7,40 L4,40 C2.897,40 2,39.103 2,38 L2,4 L2,4 Z" id="Shape" fill="#FFFFFF"></path>
        <path d="M5,32 L6,32 L6,35 C6,35.552 6.448,36 7,36 L35,36 C35.552,36 36,35.552 36,35 L36,7 C36,6.448 35.552,6 35,6 L7,6 C6.448,6 6,6.448 6,7 L6,12 L5,12 C4.448,12 4,12.448 4,13 L4,17 C4,17.552 4.448,18 5,18 L6,18 L6,26 L5,26 C4.448,26 4,26.448 4,27 L4,31 C4,31.552 4.448,32 5,32 L5,32 Z M8,8 L34,8 L34,34 L8,34 L8,31 L8,27 L8,17 L8,13 L8,8 L8,8 Z" id="Shape" fill="#FFFFFF"></path>
        <path d="M12.293,29.707 C12.488,29.902 12.744,30 13,30 C13.256,30 13.512,29.902 13.707,29.707 L18.247,25.167 C19.038,25.691 19.983,26 21,26 C22.017,26 22.962,25.691 23.753,25.167 L28.293,29.707 C28.488,29.902 28.744,30 29,30 C29.256,30 29.512,29.902 29.707,29.707 C30.098,29.316 30.098,28.684 29.707,28.293 L25.167,23.753 C25.691,22.962 26,22.017 26,21 C26,19.983 25.691,19.038 25.167,18.247 L29.707,13.707 C30.098,13.316 30.098,12.684 29.707,12.293 C29.316,11.902 28.684,11.902 28.293,12.293 L23.753,16.833 C22.962,16.309 22.017,16 21,16 C19.983,16 19.038,16.309 18.247,16.833 L13.707,12.293 C13.316,11.902 12.684,11.902 12.293,12.293 C11.902,12.684 11.902,13.316 12.293,13.707 L16.833,18.247 C16.309,19.038 16,19.983 16,21 C16,22.017 16.309,22.962 16.833,23.753 L12.293,28.293 C11.902,28.684 11.902,29.316 12.293,29.707 L12.293,29.707 Z M24,21 C24,21.823 23.666,22.57 23.127,23.112 C23.124,23.115 23.121,23.115 23.118,23.118 C23.115,23.121 23.115,23.124 23.112,23.127 C22.57,23.666 21.823,24 21,24 C19.346,24 18,22.654 18,21 C18,19.346 19.346,18 21,18 C22.654,18 24,19.346 24,21 L24,21 Z" id="Shape" fill="#FFFFFF"></path>
    </g>
</svg>