<?xml version="1.0" encoding="UTF-8" standalone="no"?>
<svg width="44px" height="44px" viewBox="0 0 44 44" version="1.1" xmlns="http://www.w3.org/2000/svg" xmlns:xlink="http://www.w3.org/1999/xlink">
    <!-- Generator: Sketch 3.7.2 (28276) - http://www.bohemiancoding.com/sketch -->
    <title>sho-box-open</title>
    <desc>Created with Sketch.</desc>
    <defs></defs>
    <g id="44px-Line" stroke="none" stroke-width="1" fill="none" fill-rule="evenodd">
        <g id="sho-box-open"></g>
        <path d="M42,13.006 C42.002,12.651 41.814,12.319 41.508,12.139 L27.937,4.139 C27.629,3.955 27.247,3.952 26.936,4.13 L21,7.499 L15.064,4.13 C14.752,3.952 14.366,3.957 14.056,4.143 L0.485,12.286 C0.179,12.47 -0.005,12.802 9.96980276e-14,13.157 C0.005,13.513 0.199,13.841 0.51,14.015 L5.036,16.56 L0.507,19.131 C0.197,19.307 0.004,19.634 9.96980276e-14,19.989 C-0.004,20.344 0.181,20.676 0.485,20.858 L6,24.167 L6,33 C6,33.358 6.192,33.69 6.504,33.868 L20.504,41.868 C20.526,41.881 20.551,41.886 20.574,41.897 C20.601,41.91 20.628,41.92 20.657,41.931 C20.769,41.972 20.883,42 21,42 C21.117,42 21.232,41.972 21.343,41.931 C21.371,41.921 21.397,41.911 21.423,41.899 C21.444,41.889 21.468,41.884 21.489,41.873 L35.489,34.016 C35.804,33.839 36,33.505 36,33.144 L36,24.11 L41.508,20.863 C41.816,20.682 42.003,20.35 42,19.994 C41.997,19.637 41.804,19.308 41.493,19.132 L36.881,16.514 L41.497,13.869 C41.807,13.69 41.998,13.362 42,13.006 L42,13.006 Z M2.99,13.114 L14.585,6.158 L18.973,8.649 L7.067,15.406 L2.99,13.114 L2.99,13.114 Z M21,9.799 L32.844,16.521 L21.061,23.273 L9.104,16.552 L21,9.799 L21,9.799 Z M7.072,17.704 L19.038,24.431 L14.583,26.984 L2.983,20.025 L7.072,17.704 L7.072,17.704 Z M8,25.366 L14.057,29 C14.215,29.095 14.394,29.143 14.572,29.143 C14.744,29.143 14.915,29.099 15.069,29.01 L20.001,26.184 L20.001,39.276 L8.001,32.419 L8.001,25.366 L8,25.366 Z M34,32.557 L22,39.292 L22,26.096 L26.938,28.872 C27.09,28.957 27.259,29 27.428,29 C27.604,29 27.78,28.954 27.936,28.861 L33.999,25.287 L33.999,32.557 L34,32.557 Z M39.003,20.017 L27.417,26.846 L23.09,24.414 L34.864,17.668 L39.003,20.017 L39.003,20.017 Z M34.86,15.365 L23.026,8.649 L27.419,6.156 L39.01,12.988 L34.86,15.365 L34.86,15.365 Z" id="Shape" fill="#FFFFFF"></path>
    </g>
</svg>