<?xml version="1.0" encoding="UTF-8" standalone="no"?>
<svg width="44px" height="44px" viewBox="0 0 44 44" version="1.1" xmlns="http://www.w3.org/2000/svg" xmlns:xlink="http://www.w3.org/1999/xlink">
    <!-- Generator: Sketch 3.7.2 (28276) - http://www.bohemiancoding.com/sketch -->
    <title>spa-alien-2</title>
    <desc>Created with Sketch.</desc>
    <defs></defs>
    <g id="44px-Glyph" stroke="none" stroke-width="1" fill="none" fill-rule="evenodd">
        <g id="spa-alien-2" fill="#555555">
            <path d="M21.0002,22 C19.3462,22 18.0002,20.654 18.0002,19 C18.0002,17.346 19.3462,16 21.0002,16 C22.6542,16 24.0002,17.346 24.0002,19 C24.0002,20.654 22.6542,22 21.0002,22 M21.0002,14 C18.2432,14 16.0002,16.243 16.0002,19 C16.0002,21.757 18.2432,24 21.0002,24 C23.7572,24 26.0002,21.757 26.0002,19 C26.0002,16.243 23.7572,14 21.0002,14" id="Fill-83"></path>
            <path d="M21.0002,26 C17.1412,26 14.0002,22.86 14.0002,19 C14.0002,15.14 17.1412,12 21.0002,12 C24.8592,12 28.0002,15.14 28.0002,19 C28.0002,22.86 24.8592,26 21.0002,26 M25.0002,32 L17.0002,32 C16.4472,32 16.0002,31.552 16.0002,31 C16.0002,30.448 16.4472,30 17.0002,30 L25.0002,30 C25.5532,30 26.0002,30.448 26.0002,31 C26.0002,31.552 25.5532,32 25.0002,32 M14.3982,10.2 C18.2852,7.277 23.7152,7.277 27.6022,10.2 C28.0432,10.532 28.1322,11.159 27.8002,11.6 C27.6032,11.861 27.3042,11.999 27.0002,11.999 C26.7912,11.999 26.5802,11.934 26.4002,11.798 C23.2212,9.408 18.7792,9.408 15.6002,11.798 C15.1592,12.131 14.5322,12.041 14.2002,11.6 C13.8682,11.159 13.9572,10.532 14.3982,10.2 M38.0002,34 C36.8972,34 36.0002,33.103 36.0002,32 L36.0002,15 C36.0002,6.729 29.2712,0 21.0002,0 C12.7282,0 6.0002,6.729 6.0002,15 L6.0002,32 C6.0002,33.103 5.1022,34 4.0002,34 C1.7942,34 0.0002,35.794 0.0002,38 C0.0002,41.309 2.6912,44 6.0002,44 C8.0852,44 9.9242,42.932 11.0002,41.313 C12.0762,42.932 13.9152,44 16.0002,44 C18.0852,44 19.9242,42.932 21.0002,41.313 C22.0762,42.932 23.9152,44 26.0002,44 C28.0852,44 29.9242,42.932 31.0002,41.313 C32.0762,42.932 33.9152,44 36.0002,44 C39.3092,44 42.0002,41.309 42.0002,38 C42.0002,35.794 40.2062,34 38.0002,34" id="Fill-84"></path>
        </g>
    </g>
</svg>