<?xml version="1.0" encoding="UTF-8" standalone="no"?>
<svg width="44px" height="44px" viewBox="0 0 44 44" version="1.1" xmlns="http://www.w3.org/2000/svg" xmlns:xlink="http://www.w3.org/1999/xlink">
    <!-- Generator: Sketch 3.7.2 (28276) - http://www.bohemiancoding.com/sketch -->
    <title>spa-saturn</title>
    <desc>Created with Sketch.</desc>
    <defs></defs>
    <g id="44px-Glyph" stroke="none" stroke-width="1" fill="none" fill-rule="evenodd">
        <g id="spa-saturn" fill="#363636">
            <path d="M30.4384,28.2385 C30.0884,28.6045 29.7234,28.9825 29.3514,29.3515 L29.2734,29.4285 C25.4084,33.2885 21.4254,36.7145 17.6724,39.4525 C19.0614,39.7965 20.5064,40.0005 22.0004,40.0005 C31.9254,40.0005 40.0004,31.9255 40.0004,22.0005 C40.0004,20.5035 39.7964,19.0575 39.4504,17.6655 C36.9584,21.0775 33.8834,24.6995 30.4384,28.2385" id="Fill-145"></path>
            <path d="M7.0226,36.9922 C6.2386,36.2052 6.2976,34.4452 7.1196,32.1472 C8.3776,33.9902 9.9776,35.6062 11.8766,36.8912 C9.5646,37.7262 7.8146,37.7832 7.0226,36.9922 M36.9846,7.0112 C37.8006,7.8282 37.7526,9.5772 36.9006,11.9132 C35.6086,10.0132 33.9716,8.3992 32.0996,7.1302 C34.4216,6.2902 36.1976,6.2242 36.9846,7.0112 M43.0496,0.9542 C40.1786,-1.9108 33.0026,2.3072 28.6896,5.3112 C26.5926,4.4672 24.3296,4.0002 22.0006,4.0002 C12.0756,4.0002 4.0006,12.0752 4.0006,22.0002 C4.0006,24.3592 4.4586,26.6292 5.2956,28.7232 C2.2906,33.0382 -1.9084,40.1892 0.9566,43.0472 C1.6306,43.7212 2.5426,44.0002 3.5916,44.0002 C6.0386,44.0002 9.2246,42.4842 11.8296,40.9442 C16.7066,38.0612 22.3996,33.4672 27.8676,28.0062 C27.8916,27.9822 27.9166,27.9602 27.9396,27.9362 C28.2996,27.5772 28.6536,27.2112 29.0056,26.8432 C34.0226,21.6912 38.2396,16.3992 40.9446,11.8232 C43.1436,8.1022 45.2936,3.1962 43.0496,0.9542" id="Fill-146"></path>
        </g>
    </g>
</svg>