<svg width="64px" height="64px" viewBox="0 0 64 64" version="1.1" xmlns="http://www.w3.org/2000/svg" xmlns:xlink="http://www.w3.org/1999/xlink">
    <!-- Generator: Sketch 3.7.2 (28276) - http://www.bohemiancoding.com/sketch -->
    <title>spa-constellation</title>
    <desc>Created with Sketch.</desc>
    <defs></defs>
    <g id="64px-Line" stroke="none" stroke-width="1" fill="none" fill-rule="evenodd">
        <g id="spa-constellation"></g>
        <path d="M47,16 L53,16 C53.552,16 54,15.552 54,15 C54,14.448 53.552,14 53,14 L47,14 C46.448,14 46,14.448 46,15 C46,15.552 46.448,16 47,16 L47,16 Z" id="Shape" fill="#000000"></path>
        <path d="M61,14 L60,14 L60,13 C60,12.448 59.552,12 59,12 C58.448,12 58,12.448 58,13 L58,14 L57,14 C56.448,14 56,14.448 56,15 C56,15.552 56.448,16 57,16 L58,16 L58,17 C58,17.552 58.448,18 59,18 C59.552,18 60,17.552 60,17 L60,16 L61,16 C61.552,16 62,15.552 62,15 C62,14.448 61.552,14 61,14 L61,14 Z" id="Shape" fill="#000000"></path>
        <path d="M39,16 L40,16 L40,17 C40,17.552 40.448,18 41,18 C41.552,18 42,17.552 42,17 L42,16 L43,16 C43.552,16 44,15.552 44,15 C44,14.448 43.552,14 43,14 L42,14 L42,13 C42,12.448 41.552,12 41,12 C40.448,12 40,12.448 40,13 L40,14 L39,14 C38.448,14 38,14.448 38,15 C38,15.552 38.448,16 39,16 L39,16 Z" id="Shape" fill="#000000"></path>
        <path d="M27,26 L28,26 L28,27 C28,27.552 28.448,28 29,28 C29.552,28 30,27.552 30,27 L30,26 L31,26 C31.552,26 32,25.552 32,25 C32,24.448 31.552,24 31,24 L30,24 L30,23 C30,22.448 29.552,22 29,22 C28.448,22 28,22.448 28,23 L28,24 L27,24 C26.448,24 26,24.448 26,25 C26,25.552 26.448,26 27,26 L27,26 Z" id="Shape" fill="#000000"></path>
        <path d="M33,40 C32.448,40 32,40.448 32,41 L32,42 L31,42 C30.448,42 30,42.448 30,43 C30,43.552 30.448,44 31,44 L32,44 L32,45 C32,45.552 32.448,46 33,46 C33.552,46 34,45.552 34,45 L34,44 L35,44 C35.552,44 36,43.552 36,43 C36,42.448 35.552,42 35,42 L34,42 L34,41 C34,40.448 33.552,40 33,40 L33,40 Z" id="Shape" fill="#000000"></path>
        <path d="M15,48 C14.448,48 14,48.448 14,49 L14,50 L13,50 C12.448,50 12,50.448 12,51 C12,51.552 12.448,52 13,52 L14,52 L14,53 C14,53.552 14.448,54 15,54 C15.552,54 16,53.552 16,53 L16,52 L17,52 C17.552,52 18,51.552 18,51 C18,50.448 17.552,50 17,50 L16,50 L16,49 C16,48.448 15.552,48 15,48 L15,48 Z" id="Shape" fill="#000000"></path>
        <path d="M32.563,22.438 C32.735,22.438 32.909,22.394 33.068,22.3 L37.912,19.456 C38.388,19.176 38.548,18.564 38.268,18.087 C37.989,17.611 37.375,17.451 36.899,17.731 L32.055,20.575 C31.579,20.855 31.419,21.467 31.699,21.944 C31.886,22.261 32.22,22.438 32.563,22.438 L32.563,22.438 Z" id="Shape" fill="#000000"></path>
        <path d="M4,37 C4,37.552 4.448,38 5,38 C5.552,38 6,37.552 6,37 L6,36 L7,36 C7.552,36 8,35.552 8,35 C8,34.448 7.552,34 7,34 L6,34 L6,33 C6,32.448 5.552,32 5,32 C4.448,32 4,32.448 4,33 L4,34 L3,34 C2.448,34 2,34.448 2,35 C2,35.552 2.448,36 3,36 L4,36 L4,37 L4,37 Z" id="Shape" fill="#000000"></path>
        <path d="M31.24,30.468 C31.12,29.929 30.583,29.591 30.047,29.709 C29.508,29.829 29.168,30.363 29.288,30.902 L30.771,37.579 C30.875,38.045 31.288,38.362 31.746,38.362 C31.818,38.362 31.891,38.354 31.964,38.338 C32.503,38.218 32.843,37.684 32.723,37.145 L31.24,30.468 L31.24,30.468 Z" id="Shape" fill="#000000"></path>
        <path d="M20.295,49.666 C20.43,49.666 20.567,49.638 20.698,49.581 L28.288,46.234 C28.793,46.011 29.022,45.421 28.8,44.916 C28.578,44.41 27.987,44.183 27.482,44.404 L19.892,47.751 C19.387,47.974 19.158,48.564 19.38,49.069 C19.545,49.443 19.911,49.666 20.295,49.666 L20.295,49.666 Z" id="Shape" fill="#000000"></path>
        <path d="M6.886,39.281 C6.462,39.635 6.404,40.265 6.757,40.69 L11.769,46.715 C11.967,46.953 12.252,47.075 12.539,47.075 C12.765,47.075 12.991,46.999 13.178,46.844 C13.602,46.49 13.66,45.86 13.307,45.435 L8.295,39.41 C7.94,38.985 7.309,38.928 6.886,39.281 L6.886,39.281 Z" id="Shape" fill="#000000"></path>
        <path d="M10.095,33.684 C10.216,33.684 10.339,33.662 10.458,33.616 L24.349,28.212 C24.864,28.012 25.119,27.432 24.918,26.917 C24.717,26.402 24.137,26.147 23.623,26.348 L9.732,31.752 C9.217,31.952 8.962,32.532 9.163,33.047 C9.317,33.442 9.695,33.684 10.095,33.684 L10.095,33.684 Z" id="Shape" fill="#000000"></path>
    </g>
</svg>